<?xml version="1.0" encoding="utf-8"?>
<!-- Generator: Adobe Illustrator 24.1.2, SVG Export Plug-In . SVG Version: 6.00 Build 0)  -->
<svg version="1.1" id="Layer_1" xmlns="http://www.w3.org/2000/svg" xmlns:xlink="http://www.w3.org/1999/xlink" x="0px" y="0px"
	 viewBox="0 0 1080 1080" style="enable-background:new 0 0 1080 1080;" xml:space="preserve">
<style type="text/css">
	.st0{fill:#FFFFFF;stroke:#000000;stroke-miterlimit:10;}
	.st1{fill:none;}
	.st2{fill:#F66435;stroke:#FFFFFF;stroke-miterlimit:10;}
</style>
<path class="st0" d="M291.5,265.5"/>
<path class="st1" d="M658.4,509.91c0,27.5-20.52,45.71-52.86,45.71H592.5L650,512l-44.05-47.09c1.03-0.01,2.03,0,3.02,0.01
	c0.66,0.01,1.31,0.02,1.96,0.04c0.64,0.02,1.28,0.04,1.91,0.07c0.63,0.02,1.25,0.05,1.86,0.09c1.26,0.06,2.48,0.15,3.66,0.26
	c1.18,0.11,2.34,0.23,3.46,0.37c0.14,0.01,0.27,0.03,0.39,0.05c0.84,0.1,1.65,0.22,2.45,0.35c0.39,0.07,0.79,0.13,1.18,0.2
	c0.33,0.05,0.65,0.12,0.97,0.17c1.21,0.23,2.38,0.49,3.51,0.77c0.29,0.07,0.57,0.14,0.85,0.22c0.34,0.08,0.67,0.18,1,0.27
	c0.48,0.13,0.95,0.28,1.41,0.42c0.24,0.08,0.48,0.15,0.71,0.23c0.23,0.07,0.46,0.15,0.68,0.23c0.38,0.13,0.75,0.26,1.12,0.4
	c0.36,0.14,0.72,0.28,1.08,0.42c0.26,0.11,0.52,0.22,0.78,0.33c0.44,0.18,0.87,0.38,1.29,0.58c0.24,0.11,0.49,0.23,0.73,0.35
	c0.41,0.2,0.81,0.41,1.2,0.63c0.06,0.03,0.11,0.06,0.17,0.09c0.34,0.19,0.68,0.39,1.02,0.59c0.08,0.04,0.16,0.09,0.23,0.14
	c0.37,0.22,0.74,0.46,1.1,0.7c0.38,0.25,0.75,0.51,1.1,0.77c0.02,0.01,0.03,0.02,0.05,0.04c0.37,0.26,0.72,0.53,1.06,0.81
	c0.05,0.04,0.1,0.07,0.14,0.11c0.3,0.25,0.6,0.5,0.89,0.76c0.33,0.29,0.65,0.58,0.96,0.89c0.01,0.01,0.03,0.02,0.04,0.04
	c0.3,0.3,0.61,0.61,0.9,0.92c0.2,0.21,0.4,0.43,0.6,0.65c0.19,0.22,0.38,0.44,0.57,0.67c0.2,0.24,0.39,0.48,0.58,0.73
	c0.24,0.31,0.47,0.62,0.69,0.93c0.03,0.03,0.05,0.07,0.07,0.11c0.26,0.35,0.5,0.71,0.74,1.08c0.4,0.63,0.78,1.27,1.13,1.94
	c0.11,0.2,0.22,0.4,0.33,0.61c0.17,0.35,0.34,0.7,0.51,1.05c0.11,0.24,0.22,0.48,0.32,0.72c0.32,0.72,0.62,1.46,0.9,2.22
	c0.22,0.59,0.42,1.2,0.61,1.82c0.19,0.61,0.37,1.23,0.54,1.87c0.09,0.34,0.17,0.68,0.25,1.03l0.18,0.75
	c0.07,0.34,0.14,0.68,0.21,1.02c0.08,0.39,0.15,0.78,0.22,1.17C658.06,499.9,658.4,504.67,658.4,509.91z"/>
<path class="st1" d="M697.22,500.8c0,16.39-6.35,30.04-17.73,39.63c0.72-1.18,1.4-2.39,2.05-3.62c0.29-0.57,0.58-1.15,0.87-1.73
	c0.04-0.08,0.08-0.16,0.11-0.24c0.28-0.61,0.56-1.22,0.83-1.84c0.14-0.32,0.28-0.65,0.42-0.98c0.13-0.33,0.27-0.66,0.4-1
	c0.26-0.66,0.51-1.33,0.75-2.01c0.24-0.69,0.47-1.37,0.69-2.07c0.11-0.35,0.21-0.7,0.32-1.05c0.41-1.39,0.78-2.82,1.1-4.28
	c0.11-0.49,0.21-0.99,0.31-1.48c0.14-0.72,0.27-1.44,0.39-2.17c0.09-0.54,0.17-1.09,0.25-1.64c0.02-0.14,0.04-0.28,0.05-0.41
	c0.1-0.76,0.19-1.53,0.27-2.3c0-0.02,0-0.04,0.01-0.07c0.05-0.58,0.1-1.17,0.14-1.77c0.04-0.58,0.08-1.16,0.1-1.75
	c0.01-0.07,0.02-0.14,0.01-0.21c0.03-0.59,0.06-1.19,0.07-1.79c0.01-0.19,0.01-0.38,0.01-0.56c0.01-0.37,0.01-0.74,0.01-1.12
	c0-18.56-6.6-34.99-18.43-45.7c-0.36-0.33-0.72-0.66-1.09-0.98c-0.33-0.3-0.67-0.59-1.01-0.87c-0.15-0.14-0.3-0.27-0.46-0.39
	c-0.16-0.13-0.32-0.26-0.47-0.39c-0.7-0.57-1.41-1.13-2.14-1.65c-0.35-0.26-0.71-0.52-1.07-0.78c-0.73-0.52-1.47-1.03-2.24-1.51
	c-0.33-0.22-0.67-0.43-1.01-0.63c-0.1-0.08-0.21-0.14-0.31-0.19c-0.24-0.16-0.49-0.31-0.74-0.45c-0.55-0.33-1.1-0.64-1.67-0.95
	c-1.53-0.84-3.11-1.63-4.76-2.37c-0.36-0.17-0.73-0.33-1.1-0.48c-0.08-0.04-0.16-0.07-0.24-0.11
	C679.58,454.51,697.22,470.94,697.22,500.8z"/>
<path class="st2" d="M697,683.45h-16.3c-9.53,0-18-6.52-20.7-16.1c-2.89-10.25-4.12-20.01-9.95-41.39
	c-8.74-32.09-19.47-45.7-46.94-46.78h-1.04c-15.17,0-27.48,12.9-27.48,28.81v164.55c0.05,0,0.09-0.01,0.13-0.02l0.13,20.24
	c-14.53,2.13-29.34,3.24-44.35,3.24c-72.32,0-140.36-25.3-191.58-71.24C287.38,678.55,259,617.02,259,551.5
	s28.38-127.05,79.92-173.26c50.16-44.99,116.45-70.16,187.08-71.19V358h0.11v351.59h-29V584.91H389.67v105.44
	c0,10.63-7.05,19.24-15.74,19.24c-7.14,0-12.93-7.07-12.93-15.8V443.66c15.83,0,28.67,15.69,28.67,35.05v76.21h107.44V328.98
	C374.16,343.61,279,437.82,279,551.5C279,675.29,391.82,776,530.5,776c4.64,0,9.26-0.12,13.84-0.34V578.42
	c0-12.49,9.66-22.62,21.58-22.62h9.07l0.22-0.18h30.33c32.34,0,52.86-18.21,52.86-45.71c0-5.24-0.34-10.01-1.12-14.31
	c-0.06-0.39-0.14-0.78-0.22-1.17c-0.07-0.34-0.14-0.68-0.21-1.02l-0.18-0.75c-0.08-0.35-0.16-0.69-0.25-1.03
	c-0.17-0.64-0.35-1.26-0.54-1.87c-0.19-0.62-0.39-1.23-0.61-1.82c-0.28-0.76-0.58-1.5-0.9-2.22c-0.1-0.24-0.21-0.48-0.32-0.72
	c-0.17-0.35-0.34-0.7-0.51-1.05c-0.11-0.21-0.21-0.41-0.33-0.61c-0.35-0.67-0.73-1.31-1.13-1.94c-0.24-0.37-0.48-0.73-0.74-1.08
	c-0.02-0.04-0.04-0.08-0.07-0.11c-0.22-0.31-0.45-0.62-0.69-0.93c-0.19-0.25-0.38-0.49-0.58-0.73c-0.19-0.23-0.38-0.45-0.57-0.67
	c-0.2-0.22-0.4-0.44-0.6-0.65c-0.29-0.32-0.59-0.62-0.9-0.92c-0.01-0.02-0.03-0.03-0.04-0.04c-0.31-0.31-0.63-0.6-0.96-0.89
	c-0.29-0.26-0.59-0.51-0.89-0.76c-0.04-0.04-0.09-0.07-0.14-0.11c-0.34-0.28-0.69-0.55-1.06-0.81c-0.02-0.02-0.03-0.03-0.05-0.04
	c-0.35-0.26-0.72-0.52-1.1-0.77c-0.36-0.24-0.73-0.48-1.1-0.7c-0.07-0.05-0.15-0.1-0.23-0.14c-0.33-0.21-0.67-0.4-1.02-0.59
	c-0.06-0.03-0.11-0.06-0.17-0.09c-0.39-0.22-0.79-0.43-1.2-0.63c-0.24-0.12-0.49-0.24-0.73-0.35c-0.42-0.2-0.85-0.4-1.29-0.58
	c-0.26-0.11-0.52-0.22-0.78-0.33c-0.36-0.14-0.72-0.28-1.08-0.42c-0.37-0.14-0.74-0.28-1.12-0.4c-0.22-0.08-0.45-0.16-0.68-0.23
	c-0.24-0.09-0.47-0.16-0.71-0.23c-0.46-0.14-0.93-0.29-1.41-0.42c-0.33-0.09-0.66-0.19-1-0.27c-0.28-0.08-0.56-0.15-0.85-0.22
	c-1.13-0.28-2.3-0.54-3.51-0.77c-0.32-0.05-0.64-0.12-0.97-0.17c-0.39-0.07-0.79-0.13-1.18-0.2c-0.8-0.13-1.61-0.25-2.45-0.35
	c-0.12-0.02-0.25-0.04-0.39-0.05c-1.12-0.14-2.28-0.26-3.46-0.37c-1.18-0.11-2.4-0.2-3.66-0.26c-0.61-0.04-1.23-0.07-1.86-0.09
	c-0.63-0.04-1.26-0.06-1.91-0.07c-0.64-0.02-1.3-0.04-1.96-0.04c-0.99-0.01-1.99-0.02-3.02-0.01c-0.48,0-0.96,0-1.45,0.01
	c-15.28,0.2-21.71,1.02-27.24,2.2c-1.82,0.39-3.67,0.58-5.52,0.58h-16.18c-0.19,0-0.39-0.01-0.58-0.02c-0.17,0-0.33-0.02-0.49-0.03
	c-0.4-0.04-0.8-0.11-1.19-0.19c-0.26-0.06-0.52-0.12-0.77-0.2c-0.2-0.05-0.39-0.12-0.58-0.19c-0.26-0.09-0.51-0.19-0.76-0.3
	c-0.16-0.07-0.31-0.14-0.46-0.22c-1.16-0.58-2.21-1.36-3.11-2.3l-2.77-4.82c-0.11-0.37-0.21-0.75-0.28-1.13l-0.23-2.37
	c0-5.85,4.1-10.81,9.63-11.64c14.16-2.13,31.64-3.29,48.44-3.29c1.02,0,2.04,0.01,3.04,0.02c0.86,0.01,1.72,0.02,2.56,0.04
	c3.02,0.07,5.93,0.2,8.74,0.39c0.9,0.06,1.79,0.13,2.68,0.2c0.88,0.07,1.75,0.15,2.61,0.24c0.86,0.08,1.71,0.17,2.56,0.27
	c1.68,0.2,3.32,0.42,4.93,0.66c0.73,0.11,1.45,0.23,2.17,0.35c0.07,0.02,0.14,0.03,0.21,0.04c0.78,0.14,1.55,0.28,2.32,0.43
	c0.76,0.15,1.52,0.3,2.26,0.46c0.75,0.16,1.49,0.33,2.22,0.51c0.55,0.13,1.1,0.27,1.65,0.41c0.2,0.05,0.41,0.1,0.61,0.16
	c0.56,0.15,1.11,0.29,1.65,0.45c1.49,0.43,2.94,0.88,4.35,1.37c0.12,0.04,0.24,0.08,0.35,0.12c0.07,0.02,0.13,0.05,0.2,0.07
	c0.49,0.17,0.97,0.35,1.45,0.53c1,0.37,1.97,0.76,2.92,1.16c0.01,0.01,0.02,0.01,0.02,0.01c0.08,0.04,0.16,0.07,0.24,0.11
	c0.37,0.15,0.74,0.31,1.1,0.48c1.65,0.74,3.23,1.53,4.76,2.37c0.57,0.31,1.12,0.62,1.67,0.95c0.25,0.14,0.5,0.29,0.74,0.45
	c0.1,0.05,0.21,0.11,0.31,0.19c0.34,0.2,0.68,0.41,1.01,0.63c0.77,0.48,1.51,0.99,2.24,1.51c0.36,0.26,0.72,0.52,1.07,0.78
	c0.73,0.52,1.44,1.08,2.14,1.65c0.15,0.13,0.31,0.26,0.47,0.39c0.16,0.12,0.31,0.25,0.46,0.39c0.34,0.28,0.68,0.57,1.01,0.87
	c0.37,0.32,0.73,0.65,1.09,0.98c11.83,10.71,18.43,27.14,18.43,45.7c0,0.38,0,0.75-0.01,1.12c0,0.18,0,0.37-0.01,0.56
	c-0.01,0.6-0.04,1.2-0.07,1.79c0.01,0.07,0,0.14-0.01,0.21c-0.02,0.59-0.06,1.17-0.1,1.75c-0.04,0.6-0.09,1.19-0.14,1.77
	c-0.01,0.03-0.01,0.05-0.01,0.07c-0.08,0.77-0.17,1.54-0.27,2.3c-0.01,0.13-0.03,0.27-0.05,0.41c-0.08,0.55-0.16,1.1-0.25,1.64
	c-0.12,0.73-0.25,1.45-0.39,2.17c-0.1,0.49-0.2,0.99-0.31,1.48c-0.32,1.46-0.69,2.89-1.1,4.28c-0.11,0.35-0.21,0.7-0.32,1.05
	c-0.22,0.7-0.45,1.38-0.69,2.07c-0.24,0.68-0.49,1.35-0.75,2.01c-0.13,0.34-0.27,0.67-0.4,1c-0.14,0.33-0.28,0.66-0.42,0.98
	c-0.27,0.62-0.55,1.23-0.83,1.84c-0.03,0.08-0.07,0.16-0.11,0.24c-0.29,0.58-0.58,1.16-0.87,1.73c-0.65,1.23-1.33,2.44-2.05,3.62
	c0,0,0,0.01-0.01,0.01v0.01c-0.25,0.41-0.51,0.82-0.77,1.23c-0.25,0.38-0.51,0.76-0.76,1.14c-0.77,1.13-1.57,2.23-2.42,3.3
	c-0.3,0.4-0.62,0.8-0.96,1.2c-0.14,0.16-0.28,0.33-0.42,0.5c0,0.02-0.01,0.03-0.04,0.05c-0.19,0.24-0.4,0.47-0.62,0.71
	c0.01,0.01,0,0.03-0.03,0.04c-0.01,0.02-0.03,0.06-0.07,0.09l-0.02,0.01c-0.18,0.22-0.37,0.43-0.56,0.64
	c-0.95,1.06-1.94,2.09-2.97,3.07c-0.32,0.3-0.63,0.6-0.95,0.89c-0.32,0.31-0.64,0.6-0.96,0.88c-0.3,0.26-0.6,0.52-0.9,0.78
	c-0.02,0.03-0.05,0.05-0.07,0.06c-0.13,0.12-0.24,0.22-0.37,0.32c-0.05,0.05-0.1,0.09-0.15,0.12c-0.34,0.29-0.69,0.58-1.04,0.85
	c-0.47,0.38-0.93,0.75-1.41,1.1c-0.52,0.4-1.05,0.79-1.59,1.16c-0.18,0.13-0.37,0.26-0.55,0.39c-0.03,0.03-0.06,0.05-0.09,0.06
	c-0.53,0.38-1.08,0.75-1.63,1.1c-0.03,0.02-0.06,0.04-0.09,0.06c-0.42,0.27-0.84,0.54-1.26,0.79c-0.06,0.05-0.13,0.09-0.19,0.12
	c-0.11,0.07-0.21,0.14-0.32,0.19c-0.25,0.16-0.5,0.31-0.75,0.45c-0.37,0.23-0.74,0.44-1.12,0.65c-0.25,0.14-0.49,0.28-0.74,0.41
	c-1.16,0.64-2.33,1.24-3.53,1.81c-0.22,0.11-0.43,0.21-0.65,0.31c-0.08,0.04-0.17,0.08-0.26,0.12c-0.39,0.18-0.78,0.37-1.17,0.52
	c-0.12,0.06-0.24,0.11-0.36,0.16c-0.2,0.08-0.4,0.17-0.6,0.26c-0.45,0.2-0.91,0.38-1.37,0.56c-0.29,0.12-0.58,0.24-0.87,0.34
	c-0.04,0.02-0.08,0.04-0.12,0.05c-0.58,0.23-1.16,0.44-1.75,0.65c-0.29,0.1-0.49,0.39-0.49,0.71s0.19,0.6,0.48,0.7
	c17.79,6.56,28.43,23.62,33.95,48.39C686.57,650.96,692.13,674.17,697,683.45z"/>
<rect x="526" y="327.05" width="0.11" height="30.95"/>
<rect x="526" y="327" width="0.11" height="0.05"/>
<path class="st1" d="M782,551.5c0,86.76-55.42,162.17-136.32,199.53L644,743l-69.41,9.36V607.99c0-15.91,12.31-28.81,27.48-28.81
	h1.04c27.47,1.08,38.2,14.69,46.94,46.78c5.83,21.38,7.06,31.14,9.95,41.39c2.7,9.58,11.17,16.1,20.7,16.1H697
	c-4.87-9.28-10.43-32.49-18.08-66.06c-5.52-24.77-16.16-41.83-33.95-48.39c-0.29-0.1-0.48-0.38-0.48-0.7s0.2-0.61,0.49-0.71
	c0.59-0.2,1.17-0.42,1.75-0.65c0.04-0.01,0.08-0.03,0.12-0.05c0.29-0.1,0.58-0.22,0.87-0.34c0.46-0.18,0.92-0.36,1.37-0.56
	c0.2-0.09,0.4-0.18,0.6-0.26c0.12-0.05,0.24-0.1,0.36-0.16c0.39-0.15,0.78-0.34,1.17-0.52c0.09-0.04,0.18-0.08,0.26-0.12
	c0.22-0.1,0.43-0.2,0.65-0.31c1.2-0.57,2.37-1.17,3.53-1.81c0.25-0.13,0.49-0.27,0.74-0.41c0.38-0.21,0.75-0.42,1.12-0.65
	c0.25-0.14,0.5-0.29,0.75-0.45c0.11-0.05,0.21-0.12,0.32-0.19c0.06-0.03,0.13-0.07,0.19-0.12c0.42-0.25,0.84-0.52,1.26-0.79
	c0.03-0.02,0.06-0.04,0.09-0.06c0.55-0.35,1.1-0.72,1.63-1.1c0.03-0.01,0.06-0.03,0.09-0.06c0.18-0.13,0.37-0.26,0.55-0.39
	c0.54-0.37,1.07-0.76,1.59-1.16c0.48-0.35,0.94-0.72,1.41-1.1c0.35-0.27,0.7-0.55,1.04-0.85c0.05-0.03,0.1-0.07,0.15-0.12
	c0.13-0.1,0.24-0.2,0.37-0.32c0.02-0.01,0.05-0.03,0.07-0.06c0.3-0.26,0.6-0.52,0.9-0.78c0.32-0.28,0.64-0.57,0.96-0.88
	c0.32-0.29,0.63-0.59,0.95-0.89c1.03-0.98,2.02-2.01,2.97-3.07c0.19-0.21,0.38-0.42,0.56-0.64l0.02-0.01
	c0.04-0.03,0.06-0.07,0.07-0.09c0.03-0.01,0.04-0.03,0.03-0.04c0.23-0.23,0.43-0.47,0.62-0.71c0.03-0.02,0.04-0.03,0.04-0.05
	c0.14-0.17,0.28-0.34,0.42-0.5c0.34-0.4,0.66-0.8,0.96-1.2c0.85-1.07,1.65-2.17,2.42-3.3c0.25-0.38,0.51-0.76,0.76-1.14
	c0.26-0.41,0.52-0.82,0.77-1.23v-0.01c0.01,0,0.01-0.01,0.01-0.01c0.72-1.18,1.4-2.39,2.05-3.62c0.29-0.57,0.58-1.15,0.87-1.73
	c0.04-0.08,0.08-0.16,0.11-0.24c0.28-0.61,0.56-1.22,0.83-1.84c0.14-0.32,0.28-0.65,0.42-0.98c0.13-0.33,0.27-0.66,0.4-1
	c0.26-0.66,0.51-1.33,0.75-2.01c0.24-0.69,0.47-1.37,0.69-2.07c0.11-0.35,0.21-0.7,0.32-1.05c0.41-1.39,0.78-2.82,1.1-4.28
	c0.11-0.49,0.21-0.99,0.31-1.48c0.14-0.72,0.27-1.44,0.39-2.17c0.09-0.54,0.17-1.09,0.25-1.64c0.02-0.14,0.04-0.28,0.05-0.41
	c0.1-0.76,0.19-1.53,0.27-2.3c0-0.02,0-0.04,0.01-0.07c0.05-0.58,0.1-1.17,0.14-1.77c0.04-0.58,0.08-1.16,0.1-1.75
	c0.01-0.07,0.02-0.14,0.01-0.21c0.03-0.59,0.06-1.19,0.07-1.79c0.01-0.19,0.01-0.38,0.01-0.56c0.01-0.37,0.01-0.74,0.01-1.12
	c0-18.56-6.6-34.99-18.43-45.7c-0.36-0.33-0.72-0.66-1.09-0.98c-0.33-0.3-0.67-0.59-1.01-0.87c-0.15-0.14-0.3-0.27-0.46-0.39
	c-0.16-0.13-0.32-0.26-0.47-0.39c-0.7-0.57-1.41-1.13-2.14-1.65c-0.35-0.26-0.71-0.52-1.07-0.78c-0.73-0.52-1.47-1.03-2.24-1.51
	c-0.33-0.22-0.67-0.43-1.01-0.63c-0.1-0.08-0.21-0.14-0.31-0.19c-0.24-0.16-0.49-0.31-0.74-0.45c-0.55-0.33-1.1-0.64-1.67-0.95
	c-1.53-0.84-3.11-1.63-4.76-2.37c-0.36-0.17-0.73-0.33-1.1-0.48c-0.08-0.04-0.16-0.07-0.24-0.11c0,0-0.01,0-0.02-0.01
	c-0.95-0.4-1.92-0.79-2.92-1.16c-0.48-0.19-0.96-0.36-1.45-0.53c-0.07-0.02-0.13-0.05-0.2-0.07c-0.11-0.04-0.23-0.08-0.35-0.12
	c-1.41-0.49-2.86-0.94-4.35-1.37c-0.54-0.16-1.09-0.3-1.65-0.45c-0.2-0.06-0.41-0.11-0.61-0.16c-0.54-0.15-1.09-0.28-1.65-0.41
	c-0.73-0.18-1.47-0.35-2.22-0.51c-0.74-0.16-1.49-0.32-2.26-0.46c-0.76-0.15-1.54-0.3-2.32-0.43c-0.07-0.01-0.14-0.02-0.21-0.04
	c-0.71-0.12-1.43-0.24-2.17-0.35c-1.61-0.24-3.25-0.46-4.93-0.66c-0.84-0.1-1.7-0.19-2.56-0.27c-0.86-0.09-1.73-0.17-2.61-0.24
	c-0.88-0.08-1.78-0.14-2.68-0.2c-2.81-0.19-5.72-0.32-8.74-0.39c-0.84-0.02-1.7-0.03-2.56-0.04c-1-0.01-2.02-0.02-3.04-0.02
	c-16.8,0-34.28,1.16-48.44,3.29c-5.53,0.83-9.63,5.79-9.63,11.64l0.23,2.37c0.07,0.38,0.17,0.76,0.28,1.13l2.77,4.82
	c0.9,0.94,1.95,1.72,3.11,2.3c0.15,0.08,0.3,0.15,0.46,0.22c0.25,0.11,0.5,0.21,0.76,0.3c0.19,0.07,0.38,0.14,0.58,0.19
	c0.25,0.08,0.51,0.14,0.77,0.2c0.39,0.08,0.79,0.15,1.19,0.19c0.16,0.01,0.32,0.03,0.49,0.03c0.19,0.01,0.39,0.02,0.58,0.02h16.18
	c1.85,0,3.7-0.19,5.52-0.58c5.53-1.18,11.96-2,27.24-2.2c0.49-0.01,0.97-0.01,1.45-0.01c1.03-0.01,2.03,0,3.02,0.01
	c0.66,0.01,1.31,0.02,1.96,0.04c0.64,0.02,1.28,0.04,1.91,0.07c0.63,0.02,1.25,0.05,1.86,0.09c1.25,0.07,2.47,0.16,3.66,0.26
	c1.18,0.11,2.34,0.23,3.46,0.37c0.14,0.01,0.27,0.03,0.39,0.05c0.83,0.11,1.65,0.22,2.45,0.35c0.39,0.07,0.79,0.13,1.18,0.2
	c0.33,0.05,0.65,0.12,0.97,0.17c1.21,0.23,2.38,0.49,3.51,0.77c0.29,0.07,0.57,0.14,0.85,0.22c0.34,0.08,0.67,0.18,1,0.27
	c0.48,0.13,0.95,0.28,1.41,0.42c0.24,0.08,0.48,0.15,0.71,0.23c0.23,0.07,0.46,0.15,0.68,0.23c0.38,0.13,0.75,0.26,1.12,0.4
	c0.36,0.14,0.72,0.28,1.08,0.42c0.26,0.11,0.52,0.22,0.78,0.33c0.44,0.18,0.87,0.38,1.29,0.58c0.24,0.11,0.49,0.23,0.73,0.35
	c0.41,0.2,0.81,0.41,1.2,0.63c0.06,0.03,0.11,0.06,0.17,0.09c0.34,0.19,0.68,0.39,1.02,0.59c0.08,0.04,0.16,0.09,0.23,0.14
	c0.37,0.22,0.74,0.46,1.1,0.7c0.38,0.25,0.75,0.51,1.1,0.77c0.02,0.01,0.03,0.02,0.05,0.04c0.37,0.26,0.72,0.53,1.06,0.81
	c0.05,0.04,0.1,0.07,0.14,0.11c0.3,0.25,0.6,0.5,0.89,0.76c0.33,0.29,0.65,0.58,0.96,0.89c0.01,0.01,0.03,0.02,0.04,0.04
	c0.3,0.3,0.61,0.61,0.9,0.92c0.2,0.21,0.4,0.43,0.6,0.65c0.19,0.22,0.38,0.44,0.57,0.67c0.2,0.24,0.39,0.48,0.58,0.73
	c0.24,0.31,0.47,0.62,0.69,0.93c0.03,0.03,0.05,0.07,0.07,0.11c0.26,0.35,0.5,0.71,0.74,1.08c0.4,0.63,0.78,1.27,1.13,1.94
	c0.11,0.2,0.22,0.4,0.33,0.61c0.17,0.35,0.34,0.7,0.51,1.05c0.11,0.24,0.22,0.48,0.32,0.72c0.32,0.72,0.62,1.46,0.9,2.22
	c0.22,0.59,0.42,1.2,0.61,1.82c0.19,0.61,0.37,1.23,0.54,1.87c0.09,0.34,0.17,0.68,0.25,1.03l0.18,0.75
	c0.07,0.34,0.14,0.68,0.21,1.02c0.08,0.39,0.15,0.78,0.22,1.17c0.78,4.3,1.12,9.07,1.12,14.31c0,27.5-20.52,45.71-52.86,45.71
	h-30.33l-0.22,0.18h-9.07c-11.92,0-21.58,10.13-21.58,22.62v197.24c-4.58,0.22-9.2,0.34-13.84,0.34C391.82,776,279,675.29,279,551.5
	c0-113.68,95.16-207.89,218.11-222.52v225.94H389.67v-76.21c0-19.36-12.84-35.05-28.67-35.05v250.13c0,8.73,5.79,15.8,12.93,15.8
	c8.69,0,15.74-8.61,15.74-19.24V584.91h107.44v124.68h29V358H586l5.72-24.26C700.91,358.21,782,446.55,782,551.5z"/>
<path class="st1" d="M574.72,772.52c-0.04,0.01-0.08,0.02-0.13,0.02v-20.18L574.72,772.52z"/>
<path d="M544.57,458.3c-0.15-0.76-0.23-1.56-0.23-2.37L544.57,458.3z"/>
<path d="M547.62,464.25c-1.26-1.33-2.23-2.98-2.77-4.82L547.62,464.25z"/>
<path d="M675.53,546.12c0.85-1.07,1.65-2.17,2.42-3.3C677.19,543.95,676.38,545.05,675.53,546.12z"/>
<path d="M679.48,540.44c0.01,0,0.01-0.01,0.01-0.01c0,0.01-0.01,0.02-0.01,0.02V540.44z"/>
<path d="M679.49,540.43c0.72-1.18,1.4-2.39,2.05-3.62C680.9,538.05,680.22,539.26,679.49,540.43z"/>
<path id="SVGID_x5F_1_x5F_" class="st1" d="M767,551.5C767,679.91,655.3,784,517.5,784S268,679.91,268,551.5S379.7,319,517.5,319
	S767,423.09,767,551.5z"/>
<text><textPath  xlink:href="#SVGID_x5F_1_x5F_" startOffset="2508.3984%">
<tspan  style="font-family:'Poppins-Black'; font-size:59px;">HARON GRAPHICS</tspan></textPath>
</text>
</svg>
